<?xml version="1.0" encoding="utf-8"?>
<!-- Generator: Adobe Illustrator 27.5.0, SVG Export Plug-In . SVG Version: 6.00 Build 0)  -->
<svg version="1.1" id="Layer_1" xmlns="http://www.w3.org/2000/svg" xmlns:xlink="http://www.w3.org/1999/xlink" x="0px" y="0px"
	 viewBox="0 0 1024 1024" style="enable-background:new 0 0 1024 1024;" xml:space="preserve">
<g>
	<path style="fill:#020203;" d="M71.165,8.2c16.577-9.869,36.576-3.572,52.674,4.024c50.236,24.749,93.519,65.335,150.107,75.752
		c27.677-23.955,63.294-38.313,99.965-39.272c7.651,0.63,13.127-5.461,19.629-8.363C470.976-0.78,570.6,1.424,645.134,48.101
		c38.422,0.808,76.258,14.496,105.304,39.889c43.994-8.556,81.336-34.536,118.254-58.408c19.957-12.211,41.078-25.502,65.116-26.528
		c21.258-0.205,37.478,18.398,41.229,38.149c15.755,64.76-11.089,132.518-53.453,181.358c12.045,24.585,11.456,54.412,3.326,80.036
		c-1.369-10.485-5.217-20.506-10.664-29.525c0.931,13.688-1.355,27.609-8.952,39.244c25.228,48.073,34.659,103.69,29.472,157.566
		c-4.271,38.341-8.487,77.601-24.571,113.134c40.013,3.148,80.529,14.648,113.806,37.48c-38.041-15.701-79.379-22.752-120.43-22.574
		c-6.229,11.377-12.908,22.506-20.136,33.277c50.469,9.965,102.183,33.289,132.243,76.641
		c-38.383-37.137-91.356-54.301-143.263-61.201c-9.254,9.967-17.438,21.301-27.883,30.309
		c50.044,11.758,98.706,34.631,135.829,70.685c-44.158-29.814-95.806-46.814-147.684-57.394
		c-6.693,4.051-12.21,10.922-18.398,16.123c48.226,11.268,96.504,32.168,131.438,68.006
		c-43.667-28.814-94.697-44.666-145.973-53.139c-9.199,7.186-19.137,13.811-26.569,22.9c43.857,4.764,87.099,17.945,125.275,40.244
		c30.088,18.068,57.819,42.817,72.986,74.916c-49.182-67.236-136.254-89.836-215.1-97.545
		c-10.648,11.322-20.943,23.08-30.962,34.988c32.714,8.514,65.595,22.162,90.302,45.719c-30.143-17.602-63.432-30.182-98.01-35.426
		c-9.636,8.652-17.944,19.316-27.239,28.582c1.163,18.152-0.015,37.328-9.514,53.344c-15.618,18.863-19.438,46.404-41.339,60.379
		c4.394-13.934,8.803-28.512,7.651-43.268c-8.089,22.313-21.366,42.832-39.613,58.449c0.26-3.695,0.575-7.379,0.711-11.047
		c-18.657,21.408-40.352,39.971-62.747,57.354c-0.63-14.66-2.848-29.195-3.326-43.856c-12.716,16.055-21.792,34.59-28.704,53.779
		c2.148-35.945,15.755-74.34,47.512-94.379c0.041,16.74-0.205,33.48-0.411,50.221c0.699-0.943,2.108-2.832,2.821-3.777
		c11.538-16.412,23.174-33.892,41.256-43.762c13.99-7.527,22.422-22.203,25.83-37.314c8.843,2.08,19.013,1.424,25.598-5.584
		c13.77-14.195,15.987-35.605,14.305-54.426c-3.56,12.963-9.924,26.199-22.23,32.893c-18.233,10.309-40.038,5.6-59.079,0.385
		c-41.53-11.129-85.607-15.264-127.835-5.463c-24.613,3.984-49.333,15.674-74.52,9.336c-17.494-4.367-28.088-20.793-32.948-37.109
		c-0.465,17.617,0.467,37.055,11.814,51.51c6.405,8.965,18.273,11.088,28.458,8.514c3.517,16.986,13.824,32.373,29.662,40.066
		c15.591,9.951,25.379,26.117,36.205,40.613c0.945,1.315,1.849,2.684,2.779,4.039c-0.534-16.783-0.493-33.578-0.63-50.373
		c31.758,20.354,45.76,58.695,48.594,94.818c-7.09-18.959-15.7-37.576-28.362-53.549c-0.958,14.371-2.3,28.719-3.244,43.092
		c-22.311-17.359-44.132-35.633-62.487-57.232c0.37,3.928,0.671,7.885,0.506,11.84c-17.356-16.617-30.415-37.287-39.216-59.365
		c-1.097,14.988,3.242,29.676,8.089,43.705c-17.479-11.648-25.583-31.906-33.427-50.398c-15.742-16.633-19.287-40.477-17.932-62.475
		c-8.623-10.047-18.343-19.56-27.28-29.525c-35.289,5.666-69.646,17.904-99.939,36.984c25.132-24.008,58.572-39.504,92.478-46.402
		c-10.512-11.924-20.464-24.748-31.579-35.891c-78.858,7.898-166.259,29.908-215.414,97.379
		c19.04-39.711,56.136-68.154,95.23-86.758c32.66-15.535,68.291-24.188,104.113-28.416c-8.788-7.898-17.671-15.906-27.445-22.518
		c-50.551,8.021-101.033,23.461-143.892,52.125c34.467-35.07,81.829-56.15,129.383-66.785c-5.777-5.516-11.937-10.664-17.467-16.453
		c-50.688,10.416-101.5,26.172-144.618,55.588c35.056-36.057,83.417-56.848,131.587-69.125
		c-9.802-9.256-18.904-19.262-27.144-29.938c-51.975,7.363-105.51,23.791-143.44,61.899c29.704-43.215,80.68-67.373,131.066-76.764
		c-7.762-11.061-14.756-22.586-21.19-34.469C78.558,598.922,37.396,604.508,0,621.029c32.989-22.916,73.383-34.221,113.094-37.918
		c-17.494-43.268-23.298-90.357-25.558-136.65c-1.491-46.145,8.692-92.78,29.979-133.79c-7.009-11.951-9.541-25.748-8.994-39.464
		c-5.488,8.72-8.391,18.726-10.648,28.69c-6.598-25.788-8.296-55.41,4.653-79.584C64.965,178.238,39.519,120.664,45.39,61.817
		C47.662,42.079,52.385,18.864,71.165,8.2z"/>
	<path style="fill:#FEC019;" d="M81.583,28.117c8.02-6.01,18.779-2.889,27.239,0.466c44.897,19.231,78.846,56.56,122.401,77.969
		c-10.663-10.636-23.899-18.616-33.358-30.498c23.12,15.029,48.621,27.541,76.081,31.977c7.158,1.45,13.127-3.464,18.478-7.434
		c21.792-17.15,48.634-28.13,76.477-29.279c-3.381,8.679-6.009,18.082-4.914,27.486c6.517-14.099,15.55-27.486,29.39-35.289
		c33.521-19.916,72.794-28.225,111.341-30.689c-13.62,6.051-28.199,10.746-40.189,19.849c41.353-10.02,85.184-20.546,127.548-10.444
		c-8.869,1.726-17.973,2.067-26.802,4.094c24.585,1.957,50.703,4.407,70.907,20.19c12.017,7.528,18.602,20.396,24.733,32.646
		c0.329-9.485-1.204-19.013-4.927-27.76c26.992,1.342,53.356,11.348,74.505,28.157c5.694,4.394,11.977,10.021,19.794,8.392
		c27.063-4.011,52.043-16.44,75.04-30.717c-9.527,11.58-22.49,19.642-33.099,30.114c43.83-21.737,77.982-59.489,123.264-78.859
		c7.966-3.216,17.714-5.886,25.68-1.259c7.829,4.9,10.457,14.578,12.073,23.105c-22.463,0.562-42.065,14.045-58.024,28.76
		c-22.41,16.699-41.025,37.972-58.218,59.873c-10.075,13.332-20.464,26.952-25.693,43.063
		c-14.167,19.629-1.779,44.337,17.617,54.507c-6.981,7.665-16.837,11.334-27.103,11.197c-3.148-1.067-6.147-2.56-9.309-3.559
		c11.416,11.348,26.021,18.615,39.724,26.651c23.202,24.858,37.876,56.738,45.459,89.658c-8.281-9.95-13.565-22.325-23.585-30.811
		c4.518,13.605,13.647,25.227,17.275,39.216c-13.361,23.709-10.172,53.029-9.295,79.284c-20.315,3.229-38.629,15.427-50.811,31.826
		c-15.235,21.092-24.969,47.169-46.444,63.06c-11.418,8.693-26.42,4.697-38.343-0.629c-9.801-13.428-22.79-24.693-37.697-32.113
		c1.067,1.943,2.149,3.902,3.313,5.818l-2.245-0.191c-5.133-1.834-8.801-6.639-14.044-8.529
		c4.873,5.791,10.704,10.746,15.084,16.974l0.028,0.533c-0.123,3.82,1.259,7.406,2.901,10.787
		c11.95,26.514,17.015,55.656,16.604,84.648c-16.399,6.953-33.51,13.02-48.238,23.19c15.017-3.846,29.156-10.76,44.364-13.922
		c0.644-0.041,1.916-0.137,2.561-0.178c-1.493,5.625-2.902,11.32-3.232,17.166c-20.807,9.596-40.668,21.381-58.23,36.164
		c-11.786-5.162-22.956-11.758-35.535-14.961c12.018-16.455,19.616-36.357,20.629-56.738c1.874-8.09,3.71-16.193,4.504-24.475
		c2.148-6.859,2.888-14.018,4.023-21.068c2.86,6.611,4.888,13.662,9.007,19.683c-0.233-10.416-3.806-20.326-5.407-30.537
		c-5.324-23.258-1.957-47.116-2.135-70.605c5.982-12.867,16.837-24.394,30.813-28.239c12.361-3.313,24.652,2.902,37.123,1.738
		c19.232-0.931,36.384-12.84,46.992-28.431c10.732-14.618,16.769-33.892,33.304-43.338c6.558-4.284,14.702-4.119,21.696-7.24
		c0.534-0.233,1.574-0.685,2.095-0.918c2.285-6.104-4.367-9.061-8.501-11.703c-26.527-15.919-55.903-29.69-87.386-30.401
		c-19.41-0.274-37.302,8.72-53.098,19.164c1.45-10.226,4.161-21.095,0.369-31.128c1.013-25.693-8.733-53.973-31.127-68.346
		c-10.13-7.105-28.541-2.889-29.088,11.169c-0.288,19.944,13.4,36.466,27.349,49.21c2.876,16.521,0.384,33.358-6.091,48.771
		c-13.401,32.799-18.752,69.196-12.307,104.238c-17.738-16.385-32.578-35.781-44.992-56.451
		c-0.836,40.764,23.885,74.602,41.16,109.37c-3.258-1.41-6.502-2.834-9.773-4.189c2.422,5.094,5.366,10.035,6.351,15.66
		c-1.628-1.449-3.244-2.889-4.872-4.313c11.867,22.971,20.861,54.016,1.779,75.836c-5.092,8.473-15.193,11.935-24.394,8.227
		c-25.131-5.135-45.841,13.769-69.386,17.125c-22.449-4.834-42.681-21.602-66.923-17.316c-7.691,2.436-17.219,1.93-22.024-5.435
		c-7.035-20.531-6.68-42.051-6.419-63.418c1.121-4.764,3.654-9.158,6.132-13.346c2.107-2.738,3.669-5.846,4.914-9.063
		c-2.833,2.41-5.448,5.051-7.966,7.775c1.19-4.326,2.313-8.652,3.435-12.99c-2.436,0.725-4.858,1.465-7.282,2.189
		c19.137-33.071,40.587-67.647,39.86-107.33c-12.154,22.408-28.949,41.969-46.854,59.968c9.376-35.739,1.492-73.45-11.02-107.412
		c-5.968-15.933-9.554-33.824-3.791-50.359c13.66-12.676,27.828-30.101,24.83-49.894c-4.395-14.825-24.708-13.58-33.838-4.012
		c-18.575,16.427-27.582,42.38-25.392,66.855c-0.383-0.466-1.122-1.383-1.491-1.834c-1,9.979-0.52,20.039,0.656,29.991
		c-15.619-8.966-32.154-18.192-50.66-18.479c-32.51-1.055-62.447,14.469-89.55,30.757c-3.613,2.314-9.664,5.353-7.214,10.609
		c0.398,0.37,1.178,1.109,1.561,1.478c0.384,0.342,1.136,1.026,1.52,1.368c27.158-1.998,39.327,25.515,50.756,45.063
		c10.404,16.933,27.747,31.347,48.321,32.318c13.524,1.163,26.925-5.38,40.339-1.943c13.347,4.434,23.79,15.618,29.074,28.458
		c3.203,35.275-0.576,70.742-9.131,105.113c4.121-6.57,7.092-13.728,10.459-20.697c1.314,8.789,3.093,17.494,4.38,26.283
		c0.547,6.541,3.052,12.701,4.162,19.135c1.039,19.301,7.542,38.807,20.094,53.74c-11.936,4.039-23.723,8.775-34.44,15.496
		c-17.727-15.275-38.121-27.104-59.448-36.59c-0.616-5.693-1.259-11.4-0.986-17.137c14.811,3.23,28.458,10.32,43.16,13.701
		c-14.264-9.404-30.347-15.713-45.925-22.641c0.753-22.545,2.122-45.295,9.473-66.84c2.231-10.279,8.966-19.232,9.869-29.785
		l0.042-0.576c4.216-5.174,9.389-9.5,13.208-15.015c-5.912,2.464-10.43,7.132-15.632,10.718c0.342-3.697,2.505-6.776,4.448-9.801
		c-14.357,8.487-27.115,19.835-37.559,32.811c-12.101,3.654-26.269,10.691-38.095,2.424c-22.847-15.113-31.606-42.599-46.952-64.048
		c-11.922-17.016-30.744-28.746-51.085-32.648c0.917-26.008,4.859-55.561-8.829-78.831c3.587-13.907,12.402-25.637,17.344-39.012
		c-9.979,7.954-15.495,19.739-23.653,29.279c7.173-33.193,23.927-64.033,46.869-88.974c13.1-7.68,26.801-14.948,37.943-25.447
		c-2.121,0.561-4.188,1.342-6.337,1.766c-11.184,0.616-24.133,0.903-31.401-9.267c20.163-9.349,32.51-34.468,19.301-54.548
		c-8.569-26.474-28.39-47.403-46.377-67.977c-11.087-11.403-21.436-23.941-34.96-32.565C114.694,66.457,94.71,50.647,70.618,50.223
		C72.85,42.338,74.327,33.113,81.583,28.117z"/>
	<path style="fill:#020203;" d="M488.06,56.889c11.99-1.382,22.831,10.938,19.793,22.683c-2.054,12.415-17.85,19.437-28.239,12.087
		C465.474,82.733,470.839,57.821,488.06,56.889z"/>
	<path style="fill:#020203;" d="M533.285,56.958c13.977-1.533,25.132,15.44,18.109,27.678c-5.104,11.375-22.434,13.716-30.073,3.723
		C511.602,77.791,518.049,57.314,533.285,56.958z"/>
	<path style="fill:#020203;" d="M420.917,74.699c9.458-2.643,29.074-0.534,25.816,13.209c-9.596,14.824-29.307,18.507-45.568,21.244
		c-7.31,1.643-20.396-1.355-17.221-11.402C391.173,84.444,406.817,77.984,420.917,74.699z"/>
	<path style="fill:#020203;" d="M587.847,74.602c19.124-3.258,40.409,5.599,51.935,21.121c5.353,7.542-4.203,14.195-11.279,13.21
		c-17.247-0.507-36.426-4.572-48.965-17.234C572.912,85.046,579.894,75.369,587.847,74.602z"/>
	<path style="fill:#7A4701;" d="M837.003,138.965c17.192-21.901,35.808-43.174,58.218-59.873
		c-8.844,13.962-28.391,30.114-17.987,47.841c11.758-8.076,23.215-16.563,33.878-26.049c-18.67,41.735-69.564,50.592-99.802,81.144
		C816.539,165.917,826.928,152.297,837.003,138.965z"/>
	<path style="fill:#7A4701;" d="M131.682,81.953c13.524,8.624,23.873,21.162,34.96,32.565
		c17.987,20.573,37.808,41.503,46.377,67.977c-24.448-22.628-57.163-33.523-82.158-55.452c-7.802-7.528-16.604-15.837-18.411-27.034
		c11.074,10.731,23.558,19.752,36.316,28.376C155.855,110.589,140.483,95.682,131.682,81.953z"/>
	<path style="fill:#020203;" d="M675.644,92.561c14.387,0.247,28.088,8.337,37.424,18.973c4.134,3.901,4.203,11.759-1.957,13.647
		c-17.384,4.791-36.795-6.256-43.763-22.395C664.857,97.161,670.183,92.219,675.644,92.561z"/>
	<path style="fill:#020203;" d="M338.814,93.889c6.379-2.56,19.067-1.943,17.727,7.639c-5.256,16.22-23.476,26.418-40.08,24.939
		c-5.681-0.232-10.676-6.392-7.364-11.785C315.489,104.032,327.315,97.695,338.814,93.889z"/>
	<path style="fill:#D88C00;" d="M176.99,97.229c20.861,16.098,42.749,32.482,68.729,39.163c-4.257,2.901-9.581,2.367-14.455,2.915
		c16.946,13.291,39.642,10.349,59.641,9.062c-13.182,5.448-27.555,12.799-42.146,9.829c-21.45-9.404-35.822-29.17-54.645-42.38
		C187.119,111.068,182.37,103.649,176.99,97.229z"/>
	<path style="fill:#D88C00;" d="M778.854,136.748c26.268-6.475,46.637-25.105,68.689-39.573c-4.464,5.612-8.474,12.005-14.605,15.92
		c-19.438,14.003-34.455,34.262-56.451,44.72c-16.947,3.956-33.154-6.173-48.745-11.566c8.788,9.267,21.094,14.085,29.91,23.325
		c10.087,9.745,16.056,22.612,23.065,34.521c-25.118-13.456-43.57-37.588-58.012-61.721c22.285,9.431,52.071,12.019,71.467-4.805
		C789.079,137.842,783.468,139.718,778.854,136.748z"/>
	<path style="fill:#7A4701;" d="M71.85,110.986c10.513,13.031,19.191,27.843,32.359,38.561c9.993,9.499,23.448,13.757,34.345,21.847
		c-0.246,0.753-0.726,2.272-0.973,3.025c-3.12,0.808-6.228,1.643-9.321,2.532c9.787,16.248,33.591,7.569,45.008,19.902
		c1.149,19.479-23.654,23.298-28.814,40.08c-2.848-2.053-5.722-4.079-8.665-5.982c-3.545-2.272-7.132-4.448-10.677-6.693
		c7.461-5.488-0.903-12.237-4.613-17.179C98.063,178.976,77.448,147.151,71.85,110.986z"/>
	<path style="fill:#020203;" d="M776.487,157.814c21.996-10.458,37.013-30.717,56.451-44.72
		c-13.512,16.495-28.171,31.962-42.175,48.019c-11.8,15.276-6.899,36.056-1.848,52.974c-3.107-3.011-5.858-6.365-8.199-9.992
		c-7.009-11.909-12.977-24.776-23.065-34.521c-8.816-9.24-21.122-14.059-29.91-23.325
		C743.333,151.641,759.54,161.77,776.487,157.814z"/>
	<path style="fill:#7A4701;" d="M933.588,135.214c11.06-1.054,13.087-13.688,17.85-21.546
		c-5.775,38.93-30.389,71.673-54.288,101.705c-2.737,2.561-1.286,5.954,0.097,8.774c-2.861,2.3-5.544,4.805-8.515,6.968
		c-2.998,2.148-5.94,4.353-8.787,6.693c-2.218-5.119-4.888-10.034-8.186-14.537c4.874-13.1,9.869-26.254,17.274-38.149
		c3.765,1.191,2.779,6.804,4.188,9.896c17.755-7.118,29.197-24.557,35.974-41.749C926.813,147.37,924.541,135.885,933.588,135.214z"
		/>
	<path style="fill:#020203;" d="M194.114,115.818c18.822,13.21,33.194,32.976,54.645,42.38c14.592,2.97,28.965-4.381,42.146-9.829
		c2.396-1.163,4.832-2.203,7.322-3.162c-6.487,7.816-16.068,11.95-23.871,18.233c-13.374,9.979-21.737,24.748-29.568,39.121
		c-2.6,4.106-5.57,8.05-9.376,11.115c5.708-18.082,9.569-41.066-4.982-56.122C218.083,143.852,205.873,130.027,194.114,115.818z"/>
	<path style="fill:#020203;" d="M474.316,115.749c11.99-4.462,25.72,5.804,23.871,18.671c-2.654,20.67-21.285,35.001-39.559,42.133
		c-9.09,3.491-21.696,6.393-29.048-1.971c-6.035-6.078-3.668-15.824,0.767-22.12C440.971,136.447,455.534,121.553,474.316,115.749z"
		/>
	<path style="fill:#020203;" d="M539.966,115.695c24.652-1.725,43.665,20.136,55.725,39.244c7.46,9.911,0.398,25.352-12.319,24.968
		c-23.243-1.136-47.021-16.056-55.068-38.491C524.456,131.574,528.453,117.735,539.966,115.695z"/>
	<path style="fill:#020203;" d="M381.316,122.786c9.418-4.572,24.105,3.518,17.591,14.715
		c-12.43,17.083-34.317,23.161-52.537,32.153c-5.585,3.355-19.958,4.86-16.604-5.516
		C340.307,144.249,360.168,129.807,381.316,122.786z"/>
	<path style="fill:#020203;" d="M631.636,122.443c21.998-1.491,41.285,14.743,55.493,30.032c3.587,5.038,10.238,11.581,6.324,18.056
		c-8.296,3.956-17.303-1.917-25.104-4.805c-14.646-6.776-31.005-12.648-41.339-25.707
		C622.19,134.475,623.683,124.032,631.636,122.443z"/>
	<path style="fill:#D88C00;" d="M298.227,145.206c1.068-1.231,2.396-2.189,3.67-3.202c-9.322,20.86-26.008,37.643-42.969,52.563
		c-4.407,3.107-8.308,7.926-14.141,7.994c7.831-14.373,16.194-29.143,29.568-39.121C282.159,157.157,291.74,153.023,298.227,145.206
		z"/>
	<path style="fill:#020203;" d="M375.814,161.044c5.68-2.956,13.551,2.012,10.019,8.569c-9.102,18.507-25.898,34.686-46.308,39.601
		c-7.474,1.902-10.978-7.187-7.691-12.826C340.006,178.58,358.402,168.163,375.814,161.044z"/>
	<path style="fill:#020203;" d="M641.135,160.798c19.015,1.506,37.467,14.729,48.458,30.278c4.709,5.708,5.558,18.698-4.695,17.973
		c-18.575-3.189-33.372-17.562-43.502-32.756C638.672,171.926,634.647,163.741,641.135,160.798z"/>
	<path style="fill:#020203;" d="M496.095,167.601c7.706-1.916,11.853,7.009,12.25,13.333c0.808,12.881-0.63,27.376-9.063,37.711
		c-6.309,5.448-12.469-3.106-12.962-9.116C483.378,195.594,482.31,176.129,496.095,167.601z"/>
	<path style="fill:#020203;" d="M523.648,167.835c15.756-0.493,17.493,21.983,15.769,33.741c-0.261,7.83-6.118,25.091-15.946,16.016
		C515.176,203.642,510.288,179.743,523.648,167.835z"/>
	<path style="fill:#020203;" d="M288.1,199.208c5.898-3.121,15.591,0.644,11.21,8.323c-6.215,11.43-19.177,26.309-33.249,22.503
		C260.53,216.688,276.326,203.341,288.1,199.208z"/>
	<path style="fill:#020203;" d="M451.114,199.249c10.238-1.547,14.345,10.362,14.44,18.562c0.836,13.99-1.547,32.66-16.316,38.643
		c-12.743,3.997-21.258-11.225-19.19-22.176C431.73,220.835,437.494,204.464,451.114,199.249z"/>
	<path style="fill:#020203;" d="M570.189,199.221c17.11,1.56,23.571,23.161,24.898,37.835c0.985,10.909-9.376,24.188-21.094,19.096
		c-12.21-6.187-14.688-21.751-14.838-34.153C558.936,213.512,560.224,201.521,570.189,199.221z"/>
	<path style="fill:#020203;" d="M747.836,198.879c12.539-1.752,22.82,8.993,28.706,18.876c2.86,4.421,3.339,14.387-4.271,13.511
		c-10.417-2.231-18.452-10.636-24.297-19.123C745.318,208.406,742.718,201.781,747.836,198.879z"/>
	<path style="fill:#020203;" d="M381.193,204.697c8.063-2.751,16.181,5.735,12.307,13.593
		c-8.323,19.191-23.285,35.439-40.683,46.869c-5.599,4.407-16.247,4.654-18.41-3.505c-1.014-11.58,7.158-21.272,13.209-30.36
		C356.651,220.301,367.067,208.762,381.193,204.697z"/>
	<path style="fill:#020203;" d="M637.263,204.876c24.2,0.972,40.763,25.241,51.029,45.034c5.723,7.994,0.028,22.147-10.978,17.877
		c-18.343-7.419-31.264-24.228-41.805-40.381C630.91,220.917,627.051,208.05,637.263,204.876z"/>
	<path style="fill:#D88C00;" d="M897.246,224.148c13.194,8.979,19.518,28.814,22.818,44.844c-4.052-7.789-7.61-16.358-15.167-21.464
		c-0.521,16.755-2.902,34.55-13.894,47.964c-3.915,5.421-12.375,11.362-6.844,18.616c28.745,51.086,41.009,110.191,39.532,168.519
		c-5.339-14.866-8.762-31.102-18.767-43.735c8.294,34.193,13.208,71.098,2.053,105.236c-0.342-21.367-2.902-44.063-13.456-62.911
		c-2.108-7.31-4.244-14.634-7.46-21.533c7.843-23.639,6.583-49.689-0.151-73.45c-2.422-7.174-5.298-17.193-14.522-17.345
		c-3.628-13.989-12.758-25.61-17.275-39.216c10.02,8.486,15.304,20.861,23.585,30.811c-7.583-32.92-22.257-64.8-45.459-89.658
		c9.527,2.86,19.396,5.652,29.43,3.778c5.599,8.061,14.25,13.689,22.628,18.561c15.276-17.056,15.891-42.805,4.435-62.05
		C891.702,228.953,894.385,226.448,897.246,224.148z"/>
	<path style="fill:#D88C00;" d="M103.881,266.24c2.601-15.632,10.047-30.703,21.23-41.982c3.545,2.245,7.132,4.421,10.677,6.693
		c-11.416,18.315-12.113,45.09,4.161,60.682c9.35-2.26,15.523-10.473,22.066-16.934c10.813,2.314,21.449-1.013,31.497-4.708
		c-22.942,24.941-39.696,55.78-46.869,88.974c8.158-9.54,13.675-21.325,23.653-29.279c-4.941,13.375-13.757,25.104-17.344,39.012
		c-9.855,0.808-12.565,11.745-15.193,19.506c-6.502,23.038-7.378,48.32-0.247,71.303c-2.436,6.392-4.653,12.881-6.789,19.383
		c-10.745,19.862-12.922,42.983-14.413,65.129c-9.87-34.015-6.968-70.331,2.094-104.168c-9.938,11.348-12.497,26.91-18.562,40.271
		c-1.849-57.998,10.772-117.174,40.299-167.465c4.146-6.352-3.942-10.813-7.104-15.372c-11.594-13.62-13.414-32.181-14.578-49.277
		C111.861,252.565,108.015,259.628,103.881,266.24z"/>
	<path style="fill:#FEC019;" d="M139.949,291.632c-16.274-15.592-15.577-42.366-4.161-60.682c2.943,1.903,5.817,3.93,8.665,5.982
		c-5.749,14.797,1.656,33.468,17.563,37.766C155.473,281.16,149.299,289.373,139.949,291.632z"/>
	<path style="fill:#FEC019;" d="M879.944,237.809c2.847-2.341,5.789-4.545,8.787-6.693c11.456,19.245,10.842,44.994-4.435,62.05
		c-8.378-4.873-17.029-10.5-22.628-18.561C877.494,270.893,885.665,252.551,879.944,237.809z"/>
	<path style="fill:#D88C00;" d="M182.37,260.149c-1.095-9.213,5.982-16.495,11.348-23.106c7.268,10.17,20.218,9.883,31.401,9.267
		C212.21,253.674,197.727,261.64,182.37,260.149z"/>
	<path style="fill:#D88C00;" d="M801.824,247.733c10.266,0.137,20.122-3.532,27.103-11.197c6.611,6.311,12.881,14.223,13.359,23.736
		C827.969,261.052,813.363,256.028,801.824,247.733z"/>
	<path style="fill:#020203;" d="M478.367,242.969c17.111-2.82,23.749,32.689,6.461,36.316
		C470.265,275.931,467.075,251.484,478.367,242.969z"/>
	<path style="fill:#020203;" d="M539.951,242.901c20.396-3.203,15.017,42.01-4.435,35.098
		C525.757,268.895,529.671,250.21,539.951,242.901z"/>
	<path style="fill:#020203;" d="M383.821,259.245c9.13-9.568,29.443-10.813,33.838,4.012c2.998,19.793-11.17,37.218-24.83,49.894
		c-9.692,9.732-11.951,24.283-10.925,37.465c1.123,23.996,14.853,44.679,20.164,67.676c4.6,17.822,5.31,36.411,3.341,54.671
		c-2.656,28.403-9.295,56.382-18.904,83.212c0.671-16.275,4.01-32.443,2.833-48.799c-0.657-19.424-4.477-39.93-16.357-55.78
		c-7.474-9.528-19.916-11.841-31.347-11.266c-23.448,0-46.745-12.963-57.683-33.947c-5.146-8.172-5.256-19.931-14.605-24.981
		c-17.411-9.746-39.121-8.925-57.614-2.778c-0.383-0.369-1.163-1.108-1.561-1.478c48.005-27.897,116.256-39.916,161.126,0.164
		c-3.613-17.233-11.155-33.536-12.867-51.208C356.239,301.625,365.246,275.671,383.821,259.245z"/>
	<path style="fill:#020203;" d="M605.943,266.404c0.547-14.058,18.958-18.274,29.088-11.169
		c22.394,14.373,32.14,42.652,31.127,68.346c-1.615,18.521-9.514,35.535-13.648,53.439c45.446-40.312,113.942-27.336,162.263,0.629
		c-0.52,0.233-1.56,0.685-2.095,0.918c-22.997-6.762-61.817-9.418-68.771,20.423c-10.142,27.828-40.106,43.351-68.769,41.735
		c-31.566,1.506-38.712,39.957-39.861,65.227c-0.972,16.466,1.409,32.837,2.642,49.208c-10.431-25.789-14.619-53.508-18.931-80.83
		c-4.094-27.774,0.383-56.355,11.415-82.063c10.089-23.558,19.603-53.863,2.889-76.654
		C619.344,302.87,605.655,286.348,605.943,266.404z"/>
	<path style="fill:#020203;" d="M247.144,271.893c9.828-4.147,18.89,6.666,14.783,15.905c-8.72,23.422-26.104,44.282-48.703,55.398
		c-7.639,4.161-20.04,3.874-23.352-5.64c-3.148-11.266,4.914-21.285,11.197-29.758C213.579,292.891,228.198,278.053,247.144,271.893
		z"/>
	<path style="fill:#020203;" d="M310.082,271.866c6.845-3.435,14.209,2.998,11.431,10.212c-5.148,16.769-17.617,33.509-35.289,38.04
		c-8.377,2.669-15.605-6.517-11.608-14.168C281.104,290.605,294.492,277.766,310.082,271.866z"/>
	<path style="fill:#020203;" d="M706.854,271.661c11.716-1.328,21.601,7.419,29.621,14.893c6.721,7.446,15.386,16.166,13.716,27.104
		c-2.095,7.351-11.457,8.048-17.398,5.215c-13.388-5.968-22.778-18.507-28.636-31.565
		C702.076,282.337,700.365,274.001,706.854,271.661z"/>
	<path style="fill:#020203;" d="M769.889,271.702c26.117,1.752,45.213,25.118,59.654,44.994c8.226,9.006,8.843,28.814-6.789,29.306
		c-25.734-3.052-43.722-26.309-55.794-47.43C762.045,290.701,757.844,275.178,769.889,271.702z"/>
	<path style="fill:#020203;" d="M464.761,308.92c5.421-3.025,12.497,1.19,12.087,7.446c-0.219,15.55-9.007,31.702-22.914,39.081
		c-6.215,3.586-13.456-2.191-12.43-8.939C442.421,331.411,451.511,316.312,464.761,308.92z"/>
	<path style="fill:#020203;" d="M550.984,308.797c19.219-0.849,31.47,23.421,31.059,40.559c-2.819,12.907-18.932,5.188-23.653-2.45
		C550.901,336.94,540.444,319.529,550.984,308.797z"/>
	<path style="fill:#FDFCFD;" d="M381.904,350.615c-1.026-13.182,1.232-27.732,10.925-37.465
		c-5.763,16.535-2.177,34.427,3.791,50.359c12.512,33.962,20.396,71.673,11.02,107.412c-0.561,0.507-1.671,1.521-2.23,2.04
		c1.97-18.26,1.259-36.849-3.341-54.671C396.758,395.294,383.027,374.611,381.904,350.615z"/>
	<path style="fill:#FDFCFD;" d="M627.201,364.384c6.475-15.412,8.967-32.249,6.091-48.771c16.714,22.791,7.2,53.097-2.889,76.654
		c-11.032,25.707-15.509,54.288-11.415,82.063c-1.328-1.944-2.725-3.819-4.094-5.708C608.449,433.581,613.8,397.183,627.201,364.384
		z"/>
	<path style="fill:#FDFCFD;" d="M357.595,354.256c-1.177-9.952-1.656-20.013-0.656-29.991c0.369,0.451,1.108,1.368,1.491,1.834
		c1.712,17.672,9.254,33.975,12.867,51.208c-44.87-40.08-113.121-28.061-161.126-0.164c-2.45-5.257,3.601-8.295,7.214-10.609
		c27.103-16.288,57.04-31.811,89.55-30.757C325.44,336.064,341.976,345.291,357.595,354.256z"/>
	<path style="fill:#FDFCFD;" d="M666.158,323.581c3.792,10.033,1.081,20.902-0.369,31.128
		c15.796-10.444,33.688-19.439,53.098-19.164c31.482,0.711,60.858,14.482,87.386,30.401c4.134,2.642,10.786,5.599,8.501,11.703
		c-48.32-27.965-116.816-40.941-162.263-0.629C656.644,359.116,664.543,342.101,666.158,323.581z"/>
	<path style="fill:#B08215;" d="M296.982,373.679c2.917-3.353,6.804-5.912,11.334-6.228c29.827-3.572,59.257,17.739,69.73,44.993
		C356.473,391.515,329.314,370.04,296.982,373.679z"/>
	<path style="fill:#B08215;" d="M645.708,411.789c8.65-22.531,30.799-39.176,54.179-44.118c9.28-0.671,21.887-2.395,27.609,6.886
		C695.15,369.135,668.088,392.173,645.708,411.789z"/>
	<path style="fill:#020203;" d="M137.76,388.203c2.628-7.761,5.338-18.698,15.193-19.506c13.688,23.27,9.746,52.823,8.829,78.831
		c-0.479,5.641-1.711,11.17-3.106,16.645c-5.366,10.841-18.699,5.216-21.163-4.668C130.382,436.523,131.258,411.241,137.76,388.203z
		"/>
	<path style="fill:#020203;" d="M871.389,368.888c9.225,0.151,12.101,10.171,14.522,17.345c6.734,23.762,7.994,49.812,0.151,73.45
		c-2.163,9.487-14.347,15.688-20.656,6.051c-1.629-5.748-2.834-11.607-3.313-17.561
		C861.217,421.918,858.027,392.597,871.389,368.888z"/>
	<path style="fill:#FDFCFD;" d="M211.731,378.622c18.493-6.146,40.203-6.968,57.614,2.778c9.35,5.051,9.459,16.81,14.605,24.981
		c10.938,20.984,34.234,33.947,57.683,33.947c11.431-0.575,23.873,1.737,31.347,11.266c11.881,15.851,15.7,36.357,16.357,55.78
		c-2.737-7.763-4.271-15.934-7.597-23.489c-5.284-12.84-15.728-24.025-29.074-28.458c-13.414-3.436-26.815,3.107-40.339,1.943
		c-20.574-0.972-37.917-15.386-48.321-32.318c-11.429-19.548-23.598-47.06-50.756-45.063
		C212.867,379.648,212.115,378.963,211.731,378.622z"/>
	<path style="fill:#FDFCFD;" d="M743.907,398.99c6.954-29.841,45.774-27.184,68.771-20.423c-6.994,3.121-15.139,2.956-21.696,7.24
		c-16.535,9.446-22.572,28.72-33.304,43.338c-10.608,15.591-27.761,27.5-46.992,28.431c-12.471,1.164-24.762-5.051-37.123-1.738
		c-13.976,3.846-24.83,15.372-30.813,28.239c-3.161,7.05-5.078,14.551-7.474,21.875c1.149-25.27,8.295-63.721,39.861-65.227
		C703.801,442.34,733.766,426.818,743.907,398.99z"/>
	<path style="fill:#020203;" d="M190.938,378.43c6.886-0.862,8.72,7.952,8.856,13.208c-0.068,13.703-1.301,29.185-10.361,40.135
		c-6.858,6.612-14.812-2.586-14.1-9.897C174.814,406.737,176.593,386.903,190.938,378.43z"/>
	<path style="fill:#020203;" d="M830.351,378.731c7.597-1.917,11.538,7.583,14.194,13.182c4.49,12.717,9.787,31.318-1.629,41.613
		c-14.496,1.492-15.7-18.973-17.74-29.417C824.656,395.664,822.795,384.712,830.351,378.731z"/>
	<path style="fill:#FEC019;" d="M297.352,382.482c6.379-1.314,13.059-1.41,19.328,0.478c-2.834,0.808-5.599,1.862-8.322,2.998
		c1.245,9.691,12.852,8.76,20.162,8.418c4.38,10.28,14.317,9.978,20.779,1.697c7.241,5.12,16.289,9.514,20.614,17.453
		C345.193,437.604,297.379,416.99,297.352,382.482z"/>
	<path style="fill:#FEC019;" d="M707.866,383.056c6.394-1.122,12.909-0.438,19.357-0.396c-1,35.576-50.551,55.231-75.342,29.772
		c7.077-6.229,14.702-11.8,22.929-16.399c2.642,2.505,5.284,5.023,8.241,7.159c7.035,3.777,13.276-2.204,15.549-8.514
		c7.228,0.369,16.563-2.286,15.646-11.376C712.11,383.179,709.988,383.098,707.866,383.056z"/>
	<path style="fill:#FDFCFD;" d="M308.358,385.959c2.724-1.136,5.488-2.19,8.322-2.998c5.817,0.465,20.901,4.394,11.84,11.416
		C321.211,394.718,309.603,395.65,308.358,385.959z"/>
	<path style="fill:#FDFCFD;" d="M695.109,393.46c-8.322-7.269,7.281-10.376,12.757-10.403c2.122,0.042,4.244,0.123,6.379,0.246
		c0.917,9.09-8.418,11.745-15.646,11.376C697.408,394.308,696.246,393.898,695.109,393.46z"/>
	<path style="fill:#886412;" d="M695.109,393.46c1.137,0.438,2.299,0.849,3.49,1.219c-2.272,6.31-8.514,12.291-15.549,8.514
		C687.868,401.071,692.878,398.566,695.109,393.46z"/>
	<path style="fill:#D88C00;" d="M407.64,470.921c17.905-17.999,34.7-37.56,46.854-59.968c0.727,39.683-20.724,74.259-39.86,107.33
		c2.424-0.725,4.846-1.465,7.282-2.189c-1.122,4.338-2.244,8.664-3.435,12.99c2.518-2.725,5.133-5.365,7.966-7.775
		c-1.245,3.217-2.807,6.324-4.914,9.063c-12.853,9.801-18.273,27.227-27.048,40.695c-4.546,7.021-8.515,14.865-7.036,23.518
		c-1.287-8.789-3.066-17.494-4.38-26.283c-3.367,6.969-6.338,14.127-10.459,20.697c8.555-34.371,12.334-69.838,9.131-105.113
		c3.326,7.556,4.859,15.727,7.597,23.489c1.177,16.356-2.162,32.524-2.833,48.799c9.609-26.83,16.248-54.809,18.904-83.212
		C405.969,472.442,407.078,471.428,407.64,470.921z"/>
	<path style="fill:#D88C00;" d="M569.902,412.171c12.414,20.67,27.254,40.066,44.992,56.451c1.369,1.889,2.766,3.764,4.094,5.708
		c4.312,27.321,8.5,55.04,18.931,80.83c-1.232-16.371-3.613-32.742-2.642-49.208c2.396-7.324,4.313-14.825,7.474-21.875
		c0.178,23.489-3.19,47.347,2.135,70.605c1.602,10.211,5.175,20.121,5.407,30.537c-4.119-6.021-6.147-13.072-9.007-19.683
		c-1.136,7.051-1.875,14.209-4.023,21.068c-9.268-18.191-19.356-36.07-29.623-53.592c-0.984-5.625-3.929-10.566-6.351-15.66
		c3.271,1.355,6.516,2.779,9.773,4.189C593.787,486.773,569.066,452.935,569.902,412.171z"/>
	<path style="fill:#020203;" d="M218.261,429.09c13.675-5.147,21.053,10.457,25.077,20.684
		c4.462,12.401,15.222,20.382,23.051,30.402c6.544,7.938,0.22,21.476-10.17,21.011c-14.55-1.313-24.461-13.688-33.263-24.077
		C212.949,464.68,201.15,440.26,218.261,429.09z"/>
	<path style="fill:#020203;" d="M794.719,429.323c10.24-5.339,20.794,5.475,19.451,15.742
		c-1.531,21.258-16.727,38.998-33.071,51.345c-7.665,6.53-22.406,7.036-25.802-4.272c-2.725-12.374,10.554-19.354,16.781-28.032
		C781.592,453.797,782.276,437.002,794.719,429.323z"/>
	<path style="fill:#FDFCFD;" d="M161.782,447.528c20.341,3.902,39.163,15.633,51.085,32.648
		c15.346,21.449,24.105,48.935,46.952,64.048c11.826,8.268,25.994,1.231,38.095-2.424c-2.561,4.092-4.9,8.336-6.912,12.728
		c11.58-11.906,22.064-27.129,37.518-33.768c-24.611,23.434-43.98,53.125-51.481,86.551c-31.538-9.773-63.638-17.904-96.367-22.572
		c-0.109-0.533-0.328-1.602-0.423-2.135c0.547-0.164,1.656-0.506,2.217-0.67c9.404-1.656,8.186-12.867,5.708-19.604
		c-5.694-16.164-13.059-32.783-26.419-44.103c-3.929-17.726-4.503-36-3.079-54.055C160.071,458.698,161.304,453.169,161.782,447.528
		z"/>
	<path style="fill:#FDFCFD;" d="M811.283,479.999c12.182-16.399,30.496-28.597,50.811-31.826c0.479,5.954,1.683,11.813,3.313,17.561
		c1.041,17.577,1.191,35.59-3.683,52.672c-14.522,13.318-23.392,32.277-27.622,51.277c-2.738,7.639,5.502,15.357,12.525,10.199
		c-0.481,1.6-0.959,3.229-1.439,4.846c-33.523,4.406-66.143,13.51-98.583,22.652c-7.529-36.027-30.32-66.744-56.739-91.438
		l2.245,0.191c16.891,11.881,29.745,28.252,43.68,43.256c-2.354-6.037-5.805-11.541-9.295-16.961
		c11.923,5.326,26.925,9.322,38.343,0.629C786.315,527.168,796.048,501.09,811.283,479.999z"/>
	<path style="fill:#C1C3C2;" d="M137.513,459.505c2.464,9.884,15.797,15.509,21.163,4.668c-1.424,18.056-0.85,36.329,3.079,54.055
		c-10.731,0.508-9.321,13.195-7.405,20.561c4.408,16.535,11.567,35.426,28.116,43.146c-0.561,0.164-1.67,0.506-2.217,0.67
		c0.095,0.533,0.313,1.601,0.423,2.135c-13.03-1.643-26.117-2.818-39.244-3.066c-15.604-31.715-16.904-68.496-10.704-102.786
		C132.859,472.386,135.077,465.898,137.513,459.505z"/>
	<path style="fill:#C1C3C2;" d="M886.063,459.683c3.216,6.899,5.352,14.224,7.46,21.533c5.625,33.563,3.724,69.167-10.815,100.348
		c-12.552,0.508-25.049,1.727-37.52,3.164c0.48-1.617,0.958-3.246,1.439-4.846c14.673-11.582,21.709-30.432,24.172-48.43
		c1.369-6.201-1.696-13.771-9.075-13.047c4.874-17.083,4.724-35.095,3.683-52.672C871.716,475.371,883.899,469.17,886.063,459.683z"
		/>
	<path style="fill:#020203;" d="M181.426,481.174c5.119-0.849,8.473,4.819,11.266,8.322c7.432,12.403,12.497,26.83,12.319,41.394
		c0.178,7.01-9.02,9.801-13.511,5.023c-10.731-10.279-15.058-25.666-16.002-40.121C175.17,490.551,175.513,483.228,181.426,481.174z
		"/>
	<path style="fill:#020203;" d="M841.178,481.133c8.624-0.315,8.433,11.185,8.049,17.289c-1.752,14.482-5.585,32.318-19.574,39.71
		c-11.334,3.174-10.691-11.965-9.007-18.986C823.944,505.445,827.545,488.06,841.178,481.133z"/>
	<path style="fill:#8D817B;" d="M297.914,541.801c10.444-12.977,23.202-24.324,37.559-32.811c-1.943,3.025-4.106,6.104-4.448,9.801
		l-0.137,0.738c-0.794,0.383-1.491,1.012-2.368,1.232c-15.454,6.639-25.938,21.861-37.518,33.768
		C293.014,550.137,295.353,545.893,297.914,541.801z"/>
	<path style="fill:#8D817B;" d="M688.799,510.317c14.907,7.419,27.897,18.685,37.697,32.113c3.49,5.42,6.94,10.924,9.295,16.961
		c-13.935-15.004-26.789-31.375-43.68-43.256C690.948,514.219,689.866,512.26,688.799,510.317z"/>
	<path style="fill:#020203;" d="M154.35,538.789c-1.916-7.365-3.326-20.053,7.405-20.561c13.36,11.32,20.725,27.94,26.419,44.103
		c2.478,6.736,3.696,17.947-5.708,19.604C165.917,574.215,158.758,555.324,154.35,538.789z"/>
	<path style="fill:#020203;" d="M834.102,569.684c4.229-19,13.1-37.959,27.622-51.277c7.379-0.725,10.444,6.846,9.075,13.047
		c-2.463,17.998-9.499,36.848-24.172,48.43C839.604,585.041,831.363,577.322,834.102,569.684z"/>
	<path style="fill:#D88C00;" d="M290.946,611.256c5.283-32.414,19.903-63.68,42.461-87.592c-0.903,10.553-7.638,19.506-9.869,29.785
		c-7.351,21.545-8.72,44.295-9.473,66.84C306.373,617.25,298.447,614.746,290.946,611.256z"/>
	<path style="fill:#D88C00;" d="M693.836,535.709c-1.643-3.381-3.024-6.967-2.901-10.787c21.941,23.928,37.931,54.699,41.913,87.154
		c-7.214,3.328-15.084,5.133-22.407,8.281C710.851,591.365,705.786,562.223,693.836,535.709z"/>
	<path style="fill:#D88C00;" d="M421.82,607.135c-17.398-15.701-16.714-43.994-6.419-63.418
		C415.141,565.084,414.785,586.604,421.82,607.135z"/>
	<path style="fill:#020203;" d="M258.066,560.69c7.954-3.283,20.204,4.053,14.798,13.182c-6.119,7.668-13.881,16.824-23.954,18.357
		C236.084,584.412,244.966,563.031,258.066,560.69z"/>
	<path style="fill:#020203;" d="M757.61,560.58c15.742-4.188,30.594,16.893,20.272,29.746c-8.61,6.693-16.453-5.598-22.393-10.691
		C748.658,574.707,747.523,562.129,757.61,560.58z"/>
	<path style="fill:#C1C3C2;" d="M150.736,597.307c15.125,1.219,30.36,2.053,45.295,4.859c-0.657,0.041-1.985,0.109-2.643,0.15
		c6.312,9.377,14.031,17.945,23.161,24.652c-15.372-0.861-30.73,0.219-46.103,0.152C163.535,617.416,156.417,607.82,150.736,597.307
		z"/>
	<path style="fill:#C1C3C2;" d="M830.87,601.865c14.209-2.053,28.555-3.148,42.886-3.805c-6.201,10.211-12.772,20.258-20.587,29.305
		c-15.222-0.834-30.443-0.916-45.664-0.41C816.046,619.4,825.149,611.912,830.87,601.865z"/>
	<path style="fill:#FDFCFD;" d="M193.389,602.316c0.657-0.041,1.985-0.109,2.643-0.15c26.418,3.34,52.33,9.746,78.202,15.947
		c-0.645,5.051-1.329,10.102-1.616,15.195c-18.616-2.725-37.26-5.313-56.067-6.34C207.42,620.262,199.7,611.693,193.389,602.316z"/>
	<path style="fill:#FDFCFD;" d="M749.191,618.826c26.761-7.611,54.138-13.02,81.679-16.961
		c-5.721,10.047-14.824,17.535-23.365,25.09c-18.727,1.863-37.574,3.232-56.027,7.228
		C750.821,629.037,750.246,623.889,749.191,618.826z"/>
	<path style="fill:#8D817B;" d="M416.181,610.201c5.517,7.227,13.552,14.1,23.38,11.73c23.572-3.668,45.733,6.393,66.759,15.51
		c1.355,18.699,2.396,37.52,1.013,56.258c-2.601,14.305-19.793-1.449-21.326-9.43c12.236-6.365,13.182-23.777,8.281-35.166
		c-4.983-11.744-18.904-13.689-30.088-14.742c19.219,6.639,30.074,29.061,22.299,48.115c0.041-10.156,0.384-22.395-8.487-29.307
		c-12.895-9.104-29.43-9.705-44.404-11.842C425.161,632.842,419.138,621.822,416.181,610.201z"/>
	<path style="fill:#FDFCFD;" d="M595.553,657.098c16.975-11.004,29.787-27.281,37.206-46.02
		c-1.013,20.381-8.61,40.283-20.629,56.738c12.579,3.203,23.749,9.799,35.535,14.961c-8.062,8.391-20.942,16.467-23.816,27.145
		c12.017-3.19,22.79-14.414,34.616-20.26c5.093,7.023,10.198,14.031,14.989,21.273c-17.563,7.432-36.931,11.305-52.933,22.023
		c-3.067,2.436,1.397,5.106,3.86,4.873c10.732-0.369,21.231-3.039,31.852-4.422c1.931-0.068,3.874-0.109,5.833-0.109
		c-3.902,5.338-7.611,10.828-11.8,15.947c-7.57,4.668-24.981,6.844-21.574,18.836c19.809-1.727,39.231-7.789,59.313-8.063
		c-40.079,42.447-111.684,41.941-155.322,5.434c-4.53-3.586-7.351-9.254-5.64-15.059
		C532.943,710.209,563.263,679.055,595.553,657.098z"/>
	<path style="fill:#FDFCFD;" d="M391.611,613.719c8.431,22.764,27.745,38.178,47.306,51.195
		c27.583,20.643,52.112,49.209,58.258,84.019c3.573,13.4-10.649,20.779-20.136,26.445c-44.075,25.844-105.605,23.299-141.715-15.236
		c19.109,0.289,37.779,4.559,56.436,8.119c4.751,1.588,6.844-5.023,3.531-7.734c-5.789-5.682-13.784-8.281-21.065-11.471
		c-3.942-5.873-8.5-11.307-12.855-16.865c14.592,0.563,30.512,9.678,44.324,3.041c-14.784-13.389-36.315-15.961-54.097-24.271
		c4.147-7.404,9.294-14.182,14.291-21.025c11.005,5.449,20.285,13.731,30.977,19.699c1.889,1.435,4.613-0.508,2.874-2.711
		c-5.872-9.35-14.757-16.234-22.477-23.969c10.718-6.721,22.505-11.457,34.44-15.496C399.153,652.525,392.65,633.02,391.611,613.719
		z"/>
	<path style="fill:#8D817B;" d="M586.766,622.275c7.953,1.588,14.372-3.791,19.644-8.939c-3.177,10.172-8.829,19.943-16.482,27.336
		c-15.55,3.025-33.017,3.75-45.774,14.346c-8.597,7.883-5.734,20.422-6.241,30.701c-3.273,6.518-9.308,12.033-16.07,14.785
		c-5.092-1.123-5.379-7.488-5.544-11.705c-0.055-17.068-0.138-34.453,2.148-51.275C539.582,627.477,562.907,618.25,586.766,622.275z
		"/>
	<path style="fill:#D88C00;" d="M290.248,622.371c8.993,1.615,17.685,4.436,26.597,6.363l-0.015,0.494
		c-0.272,5.736,0.37,11.443,0.986,17.137c-8.706-3.504-17.713-6.145-26.597-9.088C289.523,632.596,290.535,627.299,290.248,622.371z
		"/>
	<path style="fill:#D88C00;" d="M706.566,629.625c8.885-2.982,17.986-5.324,27.226-6.953c-0.136,4.805,0.63,9.814-0.726,14.496
		c-9.102,3.023-18.273,5.846-27.171,9.445c0.329-5.846,1.738-11.541,3.232-17.166C708.482,629.488,707.21,629.584,706.566,629.625z"
		/>
	<path style="fill:#C1C3C2;" d="M531.178,647.297c5.831-10.801,19.396-13.045,30.512-14.029
		c-19.671,7.103-29.637,28.635-25.256,48.674C526.249,674.031,526.003,658.193,531.178,647.297z"/>
	<path style="fill:#C1C3C2;" d="M464.199,634.361c11.184,1.053,25.104,2.998,30.088,14.742c4.9,11.389,3.955,28.801-8.281,35.166
		l0.492-1.793C494.273,663.422,483.418,641,464.199,634.361z"/>
	<path style="fill:#C1C3C2;" d="M185.86,645.449c16.18,0.273,32.482-0.111,48.567,1.82c-1.165,0.068-3.478,0.219-4.628,0.287
		c8.05,8.803,18.753,14.236,28.376,21.039c-15.7,0.014-31.4,0.781-47.033,2.137C202.218,662.889,193.376,654.703,185.86,645.449z"/>
	<path style="fill:#C1C3C2;" d="M789.982,647.283c15.852-1.656,31.84-1.861,47.773-1.629c-7.94,8.652-16.207,17.084-25.036,24.803
		c-17.591-1.367-35.344-2.586-53.015-0.984c13.4-3.75,24.228-13.143,34.727-21.861C793.323,647.529,791.093,647.365,789.982,647.283
		z"/>
	<path style="fill:#FDFCFD;" d="M229.8,647.557c1.15-0.068,3.463-0.219,4.628-0.287c12.853,1.561,25.747,3.08,38.464,5.598
		c0.671,5.914,1.232,11.856,2.505,17.701c-5.695-1.055-11.677-0.508-17.221-1.973C248.553,661.793,237.85,656.359,229.8,647.557z"/>
	<path style="fill:#FDFCFD;" d="M751.054,653.566c12.785-3.039,25.857-5.01,38.929-6.283c1.11,0.082,3.341,0.246,4.449,0.328
		c-10.499,8.719-21.326,18.111-34.727,21.861c-3.518,0.725-7.091,0.998-10.637,1.438
		C749.958,665.147,750.793,659.385,751.054,653.566z"/>
	<path style="fill:#D88C00;" d="M296.106,658.453c25.036,5.816,48.416,17.385,69.784,31.482
		c-4.997,6.844-10.144,13.621-14.291,21.025C326.837,702.816,306.182,682.367,296.106,658.453z"/>
	<path style="fill:#D88C00;" d="M658.465,689.662c21.354-13.551,44.351-25.199,69.045-31.127
		c-9.801,23.654-30.266,43.174-54.056,52.4C668.663,703.693,663.558,696.685,658.465,689.662z"/>
	<path style="fill:#C1C3C2;" d="M228.993,684.748c16.644-0.766,33.372-1.383,49.989-0.041c1.656,4.764,3.559,9.432,5.627,14.045
		c-11.69-1.137-23.435-0.029-35.098-0.451C242.586,693.934,235.385,689.897,228.993,684.748z"/>
	<path style="fill:#C1C3C2;" d="M745.441,684.885c16.521-1.135,33.112-1.012,49.635-0.096c-7.063,4.723-14.086,9.609-21.491,13.73
		c-11.184,0.082-22.395-0.822-33.578-0.109C741.896,693.934,743.717,689.43,745.441,684.885z"/>
	<path style="fill:#C1C3C2;" d="M731.657,717.695c9.39-0.793,18.835-1.34,28.253-0.711c-8.172,7.434-15.536,15.783-23.503,23.352
		c-7.118,0.166-14.264,0.123-21.382-0.08C721.363,733.356,727.017,725.828,731.657,717.695z"/>
	<path style="fill:#C1C3C2;" d="M264.116,717.15c9.624-0.508,19.261-0.234,28.869,0.287c4.941,8.184,10.787,15.781,16.81,23.199
		c-7.651-0.684-15.345-0.451-23.01-0.232C280.064,731.877,272.165,724.404,264.116,717.15z"/>
	<path style="fill:#D88C00;" d="M309.33,719.805c11.676,2.08,23.024,5.625,34.617,8.09c1.478,5.092,2.819,10.238,3.984,15.412
		c-7.68-0.971-15.387-1.766-23.093-2.6C319.568,733.809,313.806,727.266,309.33,719.805z"/>
	<path style="fill:#D88C00;" d="M681.845,727.523c11.17-2.066,22.011-5.625,33.249-7.391c-4.324,7.445-10.033,13.936-15.371,20.629
		c-9.24,0.246-18.288,2.326-27.46,3.065c3.094-5.297,7.502-9.895,9.419-15.836L681.845,727.523z"/>
	<path style="fill:#FEC019;" d="M343.947,727.895c5.695,1.301,11.375,2.641,17.083,3.859l0.342,0.438
		c4.355,5.559,8.912,10.992,12.855,16.865c-8.761-1.93-17.494-3.955-26.295-5.75C346.767,738.133,345.426,732.986,343.947,727.895z"
		/>
	<path style="fill:#FEC019;" d="M656.233,733.41c8.542-1.545,16.92-3.805,25.448-5.42c-1.917,5.941-6.325,10.539-9.419,15.836
		l-0.301,0.467c-7.268,1.506-14.4,3.613-21.695,4.955c4.188-5.119,7.897-10.609,11.8-15.947
		C660.107,733.301,658.164,733.342,656.233,733.41z"/>
	<path style="fill:#C1C3C2;" d="M696.889,759.721c9.033-1.479,18.383-0.316,27.555-0.631c-8.869,10.813-17.837,21.615-25.447,33.359
		c-1.738-0.219-3.477-0.439-5.201-0.658C694.273,781.129,692.413,769.74,696.889,759.721z"/>
	<path style="fill:#C1C3C2;" d="M300.706,759.529c8.843-0.07,17.685-0.109,26.515,0.574c4.518,10.115,3.49,21.518,3.08,32.291
		c-1.041,0.123-3.135,0.355-4.176,0.465C318.418,781.184,309.658,770.26,300.706,759.529z"/>
	<path style="fill:#585859;" d="M492.877,798.088c11.348-6.119,25.323-7.063,36.903-1.025c13.169,6.816,27.952,8.609,42.092,12.318
		c-10.13,7.269-22.489,12.512-35.192,11.102c-19.561-2.066-39.258-1.342-58.792,0.438c-9.444-1.232-17.712-6.734-26.048-11.006
		C465.349,805.658,480.037,804.74,492.877,798.088z"/>
	<path style="fill:#8D817B;" d="M488.224,814.76c11.949-14.701,37.806-12.99,50.399,0.098
		C522.048,810.887,504.867,811.174,488.224,814.76z"/>
	<path style="fill:#301A08;" d="M571.872,809.381l0.768-0.533c6.516,0.945,12.963,2.301,19.451,3.422
		c-14.701,14.098-37.026,11.512-55.411,8.213C549.383,821.893,561.742,816.65,571.872,809.381z"/>
	<path style="fill:#C1C3C2;" d="M353.844,831.762c4.86,16.316,15.454,32.742,32.948,37.109c25.188,6.338,49.907-5.352,74.52-9.336
		c42.228-9.801,86.305-5.666,127.835,5.463c19.041,5.215,40.846,9.924,59.079-0.385c12.307-6.693,18.671-19.93,22.23-32.893
		c1.683,18.82-0.535,40.231-14.305,54.426c-6.585,7.008-16.755,7.664-25.598,5.584c-3.408,15.111-11.84,29.787-25.83,37.314
		c-18.082,9.869-29.718,27.35-41.256,43.762c-0.494-17.533,14.618-31.758,26.444-43.42c14.715-10.143,30.566-24.734,28.965-44.309
		c-26.337-8.432-53.042-16.604-80.747-18.822c-44.844-5.092-89.755,4.6-131.984,19.096c-3.462,22.367,18.508,36.014,33.168,48.799
		c8.597,11.266,21.19,23.447,20.669,38.314c-10.826-14.496-20.614-30.662-36.205-40.613c-15.838-7.693-26.146-23.08-29.662-40.066
		c-10.185,2.574-22.053,0.451-28.458-8.514C354.31,868.816,353.379,849.379,353.844,831.762z"/>
</g>
</svg>
